# xmcd
#
# Track frame offsets:
#   150
#   22316
#   36978
#   51405
#   66236
#   85118
#   101773
#   117303
#   138801
#   152783
#
# Disc length: 2273 seconds
#
# Revision: 1
# Processed by: cddbd v1.5.1PL0 Copyright (c) Steve Scherf et al.
# Submitted via: Media_Universe 3.0
#
DISCID=8c08df0a
DTITLE=John Denver - Greatest Hits
DYEAR=1900
DGENRE=Country
TTITLE0=Sunshine on my Shoulders
TTITLE1=Dreamland Express
TTITLE2=Come Love me again
TTITLE3=Country Roads
TTITLE4=Rocky Mountain High
TTITLE5=Leaving on a Jet Plane
TTITLE6=I'm Sorry
TTITLE7=Back Home again
TTITLE8=Thank God I'm a Country Boy
TTITLE9=Love is all
EXTD=
EXTT0=
EXTT1=
EXTT2=
EXTT3=
EXTT4=
EXTT5=
EXTT6=
EXTT7=
EXTT8=
EXTT9=
PLAYORDER=
